<?xml version="1.0" standalone="no"?>
<!DOCTYPE svg PUBLIC "-//W3C//DTD SVG 20010904//EN"
 "http://www.w3.org/TR/2001/REC-SVG-20010904/DTD/svg10.dtd">
<svg version="1.0" xmlns="http://www.w3.org/2000/svg"
 width="225.000000pt" height="224.000000pt" viewBox="0 0 225.000000 224.000000"
 preserveAspectRatio="xMidYMid meet">

<g transform="translate(0.000000,224.000000) scale(0.100000,-0.100000)"
fill="#000000" stroke="none">
<path d="M990 2229 c-387 -45 -740 -307 -894 -665 -148 -341 -114 -738 89
-1050 307 -472 914 -642 1422 -399 123 58 200 112 301 209 333 320 431 821
243 1247 -133 303 -421 547 -740 629 -143 36 -276 46 -421 29z m266 -140 c143
-20 289 -75 414 -158 75 -49 203 -173 256 -247 62 -87 130 -234 156 -340 31
-125 31 -322 0 -448 -99 -397 -437 -696 -848 -748 -51 -7 -96 -9 -99 -6 -5 5
183 338 403 713 l70 120 139 3 138 3 78 134 c42 73 77 136 77 139 0 3 -170 6
-377 6 l-378 0 -77 -134 c-43 -74 -78 -137 -78 -140 0 -3 70 -6 155 -6 85 0
155 -3 155 -6 0 -6 -404 -708 -447 -776 -28 -46 -42 -47 -155 -12 -330 103
-577 365 -670 712 -31 115 -30 324 1 447 69 272 249 503 493 635 40 21 93 46
117 55 l43 15 -25 -43 c-166 -287 -546 -943 -568 -979 l-29 -48 383 0 382 1
75 131 c41 72 77 135 78 140 2 4 -130 8 -293 8 l-297 0 25 43 c310 539 455
781 472 788 29 11 141 11 231 -2z"/>
</g>
</svg>
