<?xml version="1.0" standalone="no"?>
<!DOCTYPE svg PUBLIC "-//W3C//DTD SVG 20010904//EN"
 "http://www.w3.org/TR/2001/REC-SVG-20010904/DTD/svg10.dtd">
<svg version="1.0" xmlns="http://www.w3.org/2000/svg"
 width="892.000000pt" height="464.000000pt" viewBox="0 0 892.000000 464.000000"
 preserveAspectRatio="xMidYMid meet">

<g transform="translate(0.000000,464.000000) scale(0.100000,-0.100000)"
fill="#000000" stroke="none">
<path d="M0 2320 l0 -2320 4460 0 4460 0 0 2320 0 2320 -4460 0 -4460 0 0
-2320z m4660 1655 c287 -60 531 -252 660 -520 75 -153 95 -240 94 -415 0 -156
-12 -226 -60 -349 -96 -241 -303 -449 -544 -544 -121 -48 -204 -62 -355 -61
-170 0 -261 21 -411 94 -265 128 -443 353 -516 647 -31 129 -30 313 5 443 47
179 125 316 253 444 232 232 554 328 874 261z m1115 -2317 c-30 -130 -189
-871 -199 -928 l-12 -75 -88 -3 -87 -3 7 48 7 48 -29 -31 c-51 -54 -109 -78
-194 -78 -64 -1 -82 3 -121 26 -57 34 -94 86 -114 163 -20 79 -19 146 5 239
26 102 62 167 127 226 62 57 123 80 208 80 76 0 116 -13 175 -56 l46 -33 28
132 c15 73 35 162 43 200 l15 67 94 0 c93 0 94 0 89 -22z m-1686 -15 c0 -10
-8 -49 -17 -88 l-17 -70 -93 -3 c-70 -2 -92 0 -92 10 0 14 27 134 35 156 3 8
31 12 95 12 79 0 90 -2 89 -17z m-3044 -55 c-12 -53 -165 -778 -165 -783 0 -3
83 -5 185 -5 201 0 192 3 176 -60 -5 -19 -12 -47 -15 -62 l-6 -28 -286 0
c-267 0 -285 1 -280 18 7 25 196 923 196 933 0 5 45 9 100 9 99 0 100 0 95
-22z m1067 17 c3 -3 -2 -38 -11 -78 l-17 -72 -134 -3 -135 -3 -86 -397 -85
-397 -102 -3 c-56 -1 -102 -1 -102 2 0 5 158 740 167 774 5 22 5 22 -130 22
l-135 0 14 68 c8 37 16 73 19 80 3 9 86 12 368 12 200 0 366 -2 369 -5z m298
-12 c0 -10 -44 -226 -97 -480 l-98 -463 -103 0 c-94 0 -103 2 -98 18 7 23 196
923 196 934 0 4 45 8 100 8 89 0 100 -2 100 -17z m524 -5 c3 -13 17 -156 31
-318 14 -162 28 -306 31 -319 4 -19 45 49 192 318 l186 341 158 0 c133 0 158
-2 158 -15 0 -15 -186 -895 -196 -927 -5 -16 -19 -18 -105 -18 -74 0 -99 3
-99 13 0 7 38 179 85 382 46 203 83 370 82 371 -1 2 -97 -170 -212 -382 l-210
-384 -92 0 c-88 0 -93 1 -97 23 -3 12 -19 175 -36 362 -17 187 -34 348 -38
358 -4 10 -42 -140 -91 -363 l-84 -380 -94 0 c-92 0 -93 0 -88 23 5 23 80 373
156 735 l43 202 158 0 c155 0 158 0 162 -22z m3221 -128 l-22 -100 79 0 c89 0
87 2 67 -90 l-11 -50 -82 0 -83 0 -36 -168 c-43 -194 -45 -232 -17 -257 16
-15 30 -17 78 -12 l59 6 -15 -67 c-8 -37 -20 -70 -26 -74 -24 -15 -117 -20
-166 -8 -65 16 -104 48 -126 105 -21 57 -16 121 25 307 17 76 31 144 31 152 0
11 -16 16 -64 18 l-63 3 16 65 16 65 67 3 66 3 13 69 12 69 86 30 c128 44 122
48 96 -69z m-1460 -109 c52 -23 101 -80 116 -133 15 -58 7 -127 -44 -363 l-43
-200 -92 -3 c-77 -2 -92 0 -92 12 0 9 18 102 40 207 46 219 50 284 20 322 -40
51 -131 43 -187 -15 -48 -50 -67 -104 -114 -325 l-43 -203 -93 0 c-51 0 -93 2
-93 5 0 3 29 139 64 303 36 163 69 320 73 347 l8 50 90 0 90 0 -3 -27 c-3 -28
11 -38 24 -17 3 6 30 22 58 35 64 30 162 32 221 5z m2155 15 c0 -3 -9 -44 -20
-93 l-21 -88 -62 3 c-54 3 -68 0 -107 -26 -70 -44 -95 -101 -141 -319 -21
-102 -39 -188 -39 -190 0 -2 -43 -3 -95 -3 -94 0 -95 0 -90 23 3 12 36 171 74
352 l67 330 88 3 88 3 -7 -47 c-3 -26 -9 -53 -12 -62 -4 -8 13 6 37 32 60 65
101 85 178 86 34 0 62 -2 62 -4z m526 -24 c55 -28 109 -92 124 -148 13 -45 9
-221 -5 -244 -4 -6 -92 -10 -251 -10 l-244 0 0 -28 c0 -40 33 -94 71 -117 49
-29 201 -27 278 3 30 12 56 20 57 19 2 -1 -2 -35 -8 -74 -11 -69 -12 -71 -47
-81 -308 -91 -531 28 -531 283 0 184 112 343 289 411 57 22 215 13 267 -14z
m736 8 c118 -45 164 -129 156 -290 -3 -53 -8 -102 -12 -108 -5 -9 -77 -12
-252 -12 l-244 0 0 -26 c0 -42 29 -92 69 -116 50 -32 199 -32 280 0 30 12 56
20 57 19 2 -1 -2 -35 -8 -74 -11 -69 -12 -71 -47 -81 -191 -57 -362 -31 -454
67 -138 148 -84 438 106 573 95 68 243 88 349 48z m-4092 -7 c0 -9 -32 -169
-72 -355 l-72 -338 -93 0 c-51 0 -93 2 -93 5 0 8 140 668 146 688 5 14 18 17
95 17 77 0 89 -2 89 -17z"/>
<path d="M4165 3524 c-110 -191 -201 -350 -203 -355 -2 -5 108 -9 248 -9 138
0 250 -4 248 -8 -1 -5 -32 -59 -68 -120 l-64 -112 -323 0 c-178 0 -323 3 -323
8 1 4 117 207 259 452 142 245 257 447 255 449 -9 10 -196 -95 -254 -142 -132
-108 -243 -276 -287 -437 -25 -91 -25 -329 0 -420 63 -233 226 -431 446 -541
86 -43 215 -79 231 -63 9 9 400 683 400 690 0 2 -60 5 -134 6 l-135 3 67 117
67 118 328 0 329 0 -20 -32 c-11 -18 -42 -71 -69 -118 l-49 -85 -120 -3 -119
-3 -24 -42 c-13 -23 -104 -183 -203 -355 -99 -172 -179 -315 -177 -316 12 -10
187 20 257 44 474 162 703 709 482 1151 -145 292 -431 470 -752 469 l-93 0
-200 -346z"/>
<path d="M5273 1219 c-128 -38 -196 -350 -92 -423 76 -53 203 23 246 148 23
67 23 171 0 213 -30 57 -91 81 -154 62z"/>
<path d="M7135 1218 c-47 -26 -105 -102 -105 -138 0 -6 53 -10 150 -10 l150 0
0 51 c0 43 -5 55 -29 80 -26 25 -36 29 -88 29 -32 0 -67 -6 -78 -12z"/>
<path d="M7895 1218 c-47 -26 -105 -102 -105 -138 0 -6 53 -10 150 -10 l150 0
0 49 c0 39 -6 56 -26 80 -24 29 -31 31 -87 31 -34 0 -71 -6 -82 -12z"/>
</g>
</svg>
